Coordinates
version=1
nRows=8
nColumns=42
inDegrees=yes

Units are S.I. units (second, meters, Newtons, ...)
If the header above contains a line with 'inDegrees', this indicates whether rotational values are in degrees (yes) or radians (no).

endheader
time	pelvis_tilt	pelvis_list	pelvis_rotation	pelvis_tx	pelvis_ty	pelvis_tz	hip_flexion_r	hip_adduction_r	hip_rotation_r	knee_angle_r	knee_adduction_r	knee_angle_r_beta	ankle_angle_r	subtalar_angle_r	mtp_angle_r	hip_flexion_l	hip_adduction_l	hip_rotation_l	knee_angle_l	knee_adduction_l	knee_angle_l_beta	ankle_angle_l	subtalar_angle_l	mtp_angle_l	lumbar_extension	lumbar_bending	lumbar_rotation	arm_flex_r	arm_add_r	arm_rot_r	elbow_flex_r	pro_sup_r	wrist_flex_r	wrist_dev_r	arm_flex_l	arm_add_l	arm_rot_l	elbow_flex_l	pro_sup_l	wrist_flex_l	wrist_dev_l
      0.00000000	      3.27555257	     -0.10239108	     -1.06784693	     -2.10642749	      0.97551024	      0.26721562	     15.44517492	     -6.87359616	     -6.76316495	     37.72926392	      6.62157756	      0.65849988	      9.77107846	      2.94538942	     -9.59309468	     -6.88263555	      1.64121440	     -5.43714839	      3.34855202	      0.14642152	      0.05844326	      9.08863099	     16.28661741	     -9.59309468	     -8.60355389	      0.21356753	     -2.58088627	     -8.88898587	    -12.64503684	     10.10119006	     28.73169338	     90.00000001	      0.00000000	      0.00000000	      7.97528297	    -17.91327340	     21.59906615	     31.86739827	     90.00000001	      0.00000000	      0.00000000
      0.01000000	      3.16650620	      0.07399477	     -1.10063740	     -2.10104933	      0.97478688	      0.26718816	     15.98659889	     -7.03276279	     -7.27923498	     36.54524657	      6.43300208	      0.63783488	      9.79473608	      3.02898682	     -9.57334811	     -7.11415605	      1.89045957	     -5.55737950	      3.35606985	      0.07218962	      0.05857447	      9.36525621	     16.27936539	     -9.57334811	     -8.44437211	      0.10162891	     -2.55343472	     -9.16051324	    -12.60251892	     10.11474428	     28.60299934	     90.00000001	      0.00000000	      0.00000000	      8.27534173	    -17.96333193	     21.50755340	     32.23172710	     90.00000001	      0.00000000	      0.00000000
      0.02000000	      3.20888289	      0.00100021	     -0.89764984	     -2.09408717	      0.97413986	      0.26711332	     16.18615392	     -6.96062310	     -8.01802394	     34.65344721	      6.36182281	      0.60481675	      9.80434560	      3.58763842	     -9.53350339	     -7.66347036	      1.81696866	     -5.31309480	      3.26769792	      0.02308228	      0.05703209	      9.90845894	     16.52850997	     -9.53350339	     -8.44311019	      0.31057470	     -2.77558029	     -9.39098151	    -12.52798652	     10.06664512	     28.25510051	     90.00000001	      0.00000000	      0.00000000	      8.50503542	    -18.09229379	     21.37511613	     33.00173341	     90.00000001	      0.00000000	      0.00000000
      0.03000000	      3.55747165	     -0.17863410	     -0.68987028	     -2.08568076	      0.97361333	      0.26740992	     16.05403960	     -6.65640784	     -9.26965260	     32.41695197	      5.91520568	      0.56578255	      9.81206400	      4.26181934	     -9.46154010	     -8.66337355	      1.53770907	     -5.34964396	      3.15330657	      0.12125455	      0.05503558	     10.42878233	     16.79124258	     -9.46154010	     -8.75453748	      0.61001797	     -2.97652266	     -9.65147904	    -12.41089508	      9.91169026	     27.91751156	     90.00000001	      0.00000000	      0.00000000	      8.83026184	    -18.26679043	     21.29690403	     33.81021706	     90.00000001	      0.00000000	      0.00000000
      0.04000000	      3.36923842	      0.20183097	     -0.78155748	     -2.07695125	      0.97207778	      0.26758854	     16.91682046	     -7.01332948	    -10.16359153	     30.59054696	      5.69004632	      0.53390576	      9.76272311	      4.36376498	     -9.44503740	     -9.01097421	      1.98552230	     -5.69250016	      3.20661114	      0.10250006	      0.05596592	     10.79040403	     16.70598714	     -9.44503740	     -8.49313207	      0.30556909	     -2.80054198	    -10.14538419	    -12.31904518	      9.94946007	     27.72042388	     90.00000001	      0.00000000	      0.00000000	      9.35356904	    -18.29080367	     21.18920091	     34.38707100	     90.00000001	      0.00000000	      0.00000000
      0.05000000	      3.80782741	     -0.15101528	     -0.40749130	     -2.06701714	      0.97143110	      0.26788358	     16.31318285	     -6.50501917	    -11.10836307	     27.32632874	      5.58602692	      0.47693441	      9.50521105	      5.64977144	     -9.37235016	    -10.24649390	      1.51112756	     -5.39789109	      3.00641204	      0.11184665	      0.05247179	     11.59909332	     17.32583420	     -9.37235016	     -8.88823583	      0.84609474	     -3.32825651	    -10.22084357	    -12.17661667	      9.74865013	     27.15199747	     90.00000001	      0.00000000	      0.00000000	      9.43105723	    -18.66226088	     21.15853563	     35.69895841	     90.00000001	      0.00000000	      0.00000000
      0.06000000	      3.63441762	      0.12818599	     -0.38163835	     -2.05743296	      0.96972463	      0.26806175	     16.82934508	     -6.73660697	    -11.70322545	     24.76404337	      5.61351974	      0.43221409	      9.19806129	      6.40898864	     -9.34266942	    -10.68019663	      1.86970521	     -5.40738372	      3.02774455	     -0.02777213	      0.05284411	     12.17401260	     17.48614798	     -9.34266942	     -8.65011229	      0.68996692	     -3.42120255	    -10.54867660	    -12.07579259	      9.72896619	     26.86018084	     90.00000001	      0.00000000	      0.00000000	      9.73439917	    -18.82719116	     21.06120221	     36.59187605	     90.00000001	      0.00000000	      0.00000000
      0.07000000	      3.57675315	      0.33335100	     -0.26467931	     -2.04746262	      0.96805333	      0.26838459	     17.07321446	     -6.84568047	    -12.31780448	     22.06433144	      5.58583044	      0.38509523	      8.90855453	      7.28330383	     -9.31579906	    -11.26955026	      2.10981973	     -5.37877235	      3.02872532	     -0.14662011	      0.05286123	     12.79447285	     17.64963329	     -9.31579906	     -8.50895181	      0.61191476	     -3.63337631	    -10.80324386	    -11.95935434	      9.70341054	     26.48468542	     90.00000001	      0.00000000	      0.00000000	      9.93914056	    -19.07436543	     20.95096519	     37.62881436	     90.00000001	      0.00000000	      0.00000000
